<?xml version="1.0" encoding="UTF-8" standalone="no"?>
<!-- Created with Inkscape (http://www.inkscape.org/) -->

<svg
   xmlns:dc="http://purl.org/dc/elements/1.1/"
   xmlns:cc="http://creativecommons.org/ns#"
   xmlns:rdf="http://www.w3.org/1999/02/22-rdf-syntax-ns#"
   xmlns:svg="http://www.w3.org/2000/svg"
   xmlns="http://www.w3.org/2000/svg"
   xmlns:sodipodi="http://sodipodi.sourceforge.net/DTD/sodipodi-0.dtd"
   xmlns:inkscape="http://www.inkscape.org/namespaces/inkscape"
   width="63.672432"
   height="24"
   id="svg3796"
   version="1.1"
   inkscape:version="0.48.3.1 r9886"
   sodipodi:docname="logo.svg">
  <defs
     id="defs3798" />
  <sodipodi:namedview
     id="base"
     pagecolor="#ffffff"
     bordercolor="#666666"
     borderopacity="1.0"
     inkscape:pageopacity="0.0"
     inkscape:pageshadow="2"
     inkscape:zoom="5.6"
     inkscape:cx="53.097482"
     inkscape:cy="9.7059013"
     inkscape:document-units="px"
     inkscape:current-layer="g3880"
     showgrid="false"
     fit-margin-top="0"
     fit-margin-left="0"
     fit-margin-right="0"
     fit-margin-bottom="0"
     inkscape:window-width="1918"
     inkscape:window-height="1078"
     inkscape:window-x="0"
     inkscape:window-y="0"
     inkscape:window-maximized="0" />
  <metadata
     id="metadata3801">
    <rdf:RDF>
      <cc:Work
         rdf:about="">
        <dc:format>image/svg+xml</dc:format>
        <dc:type
           rdf:resource="http://purl.org/dc/dcmitype/StillImage" />
        <dc:title></dc:title>
      </cc:Work>
    </rdf:RDF>
  </metadata>
  <g
     inkscape:label="Capa 1"
     inkscape:groupmode="layer"
     id="capa1"
     transform="translate(-325.49819,-376.13412)">
    <g
       id="g3880"
       transform="matrix(0.23760833,0,0,0.23701812,248.15711,305.29508)"
       inkscape:export-filename="/home/bromagosa/Scratch/snap/Snappy/graphics/logo.png"
       inkscape:export-xdpi="124"
       inkscape:export-ydpi="124">
      <path
         sodipodi:nodetypes="cssssssscssscsssscssscsscsssssssscssssssscccccssccccccscccccscsssssscssssssssscs"
         inkscape:connector-curvature="0"
         id="path5062-9"
         d="m 395.36869,399.73238 c -1.09178,-0.44897 -1.58065,-0.74719 -2.5569,-1.55971 -2.09732,-1.74555 -4.17127,-5.79517 -4.95151,-9.66832 -0.47293,-2.34765 0.073,-2.08963 -4.68472,-2.21425 -8.43889,-0.22103 -14.05672,-1.25431 -18.48255,-3.3995 -3.46105,-1.67755 -6.51338,-4.87361 -8.5613,-8.96445 -2.59907,-5.19171 -4.62503,-13.61167 -5.90647,-24.5474 -0.45238,-3.86055 -0.48684,-4.0704 -0.66809,-4.0704 -0.0837,0 -0.23422,0.31774 -0.33449,0.70609 -0.57356,2.2218 -2.50342,6.48299 -6.97577,15.40263 -5.18722,10.34539 -7.03073,14.89886 -7.55134,18.65188 -0.0599,0.43191 -0.16069,0.81699 -0.22394,0.85573 -0.14554,0.0891 -8.82119,-0.82194 -8.93788,-0.93863 -0.17232,-0.1723 0.3079,-2.23372 0.87964,-3.77595 1.20589,-3.25284 4.28806,-9.18777 7.98094,-15.3678 0.81903,-1.37064 3.00674,-4.99662 4.86159,-8.05772 4.04424,-6.67434 6.80437,-11.45293 8.05125,-13.93916 l 0.91949,-1.83342 -0.17168,-1.7082 c -0.63342,-6.30217 -1.79764,-10.11583 -3.59835,-11.78714 -1.01718,-0.94409 -2.16234,-1.54207 -3.84421,-2.00739 -1.0828,-0.29958 -1.74038,-0.35299 -4.42827,-0.35967 -2.04543,-0.005 -3.49915,0.0696 -4.12968,0.21202 -0.61721,0.13946 -1.03101,0.16192 -1.13151,0.0614 -0.20798,-0.20799 0.48912,-6.53027 0.74969,-6.7991 0.60964,-0.62901 6.43843,-1.25358 9.58022,-1.02655 2.32581,0.16807 3.721,0.50164 5.38013,1.28629 2.39781,1.134 3.70126,2.65835 4.90437,5.73549 1.33783,3.42175 2.07153,7.12915 3.0933,15.6304 2.10733,17.53334 5.36514,28.47516 10.53278,35.37587 1.95804,2.61472 3.4799,4.20545 5.4865,5.73477 2.43405,1.85512 3.5922,2.54847 4.99208,2.98865 2.39745,0.75385 3.7813,0.88846 10.21752,0.99391 l 6.14712,0.10069 0.10889,1.75572 c 0.34477,5.55979 2.41801,10.59503 4.84652,11.77064 0.7076,0.34255 0.86299,0.34617 14.74291,0.34255 15.95369,-0.004 14.7185,0.10727 16.1226,-1.45441 1.78363,-1.98383 3.06996,-5.84813 3.47153,-10.42896 0.0953,-1.08724 0.23163,-2.03513 0.30294,-2.10644 0.0713,-0.0713 9.17185,-0.11066 20.22341,-0.0874 l 20.09378,0.0422 0,2.40901 0,2.40901 -17.94222,0.0831 -17.94222,0.0831 -0.14263,0.74762 c -1.29078,6.76566 -4.14603,11.38899 -7.86786,12.73995 l -1.06063,0.38499 -15.31871,-0.004 -15.31871,-0.004 -0.95756,-0.39378 z m 89.4876,-13.76904 c -0.0458,-0.11937 -0.0623,-1.22256 -0.0367,-2.45154 l 0.0466,-2.23447 12.72145,0 9.62417,0 0,2.409 0,2.40901 -9.58747,0.0425 c -10.85395,0.0481 -12.70025,0.002 -12.76803,-0.17453 z m -14.28816,-55.29511 c -4.90078,-0.51478 -10.89506,-3.10291 -22.48976,-9.71036 -14.72616,-8.39195 -20.08986,-10.88572 -27.16363,-12.62934 -3.89582,-0.96027 -5.64017,-1.13097 -11.46355,-1.1218 -8.40928,0.0133 -14.18818,0.83817 -20.02759,2.85896 -5.53462,1.91529 -9.54381,4.2206 -16.4627,9.46615 -7.93105,6.0129 -12.27367,8.85865 -12.27093,8.04123 0.002,-0.38597 0.9056,-3.40593 1.41585,-4.72828 4.46902,-11.58184 16.527,-19.66069 33.89284,-22.7082 3.86772,-0.67874 6.65708,-0.97671 11.0059,-1.17571 13.29151,-0.60822 22.49852,1.9867 35.34203,9.96083 1.27927,0.79426 4.83048,3.08793 7.89158,5.09704 8.15289,5.35104 12.27592,7.74807 16.64988,9.67983 3.99594,1.7648 7.88774,2.97705 12.009,3.74064 1.36478,0.25288 1.99366,0.4392 1.99366,0.59069 0,0.35495 -1.99009,1.4726 -3.55669,1.99746 -1.35094,0.4526 -3.78552,0.8505 -4.91637,0.8035 -0.27413,-0.0115 -1.10642,-0.0846 -1.84952,-0.16264 z"
         style="fill:#789632;fill-opacity:1"
         inkscape:export-filename="/home/bromagosa/Scratch/snap/Snappy/graphics/logo.png"
         inkscape:export-xdpi="90"
         inkscape:export-ydpi="90" />
      <text
         transform="scale(0.92153897,1.0851413)"
         sodipodi:linespacing="125%"
         id="text5088"
         y="342.97015"
         x="395.5213"
         style="font-size:61.2548027px;font-style:normal;font-variant:normal;font-weight:bold;font-stretch:normal;line-height:125%;letter-spacing:-0.07656852px;word-spacing:0px;fill:#789632;fill-opacity:1;stroke:none;font-family:DejaVu Sans;-inkscape-font-specification:DejaVu Sans Bold"
         xml:space="preserve"
         inkscape:export-filename="/home/bromagosa/Scratch/snap/Snappy/graphics/logo.png"
         inkscape:export-xdpi="90"
         inkscape:export-ydpi="90"><tspan
           style="font-style:normal;font-variant:normal;font-weight:normal;font-stretch:normal;fill:#789632;fill-opacity:1;font-family:DejaVu Sans;-inkscape-font-specification:DejaVu Sans"
           y="342.97015"
           x="395.5213"
           id="tspan5090"
           sodipodi:role="line">Snappy<tspan
   style="font-style:oblique;-inkscape-font-specification:DejaVu Sans Oblique"
   id="tspan3885">!</tspan></tspan></text>
    </g>
  </g>
</svg>
